<svg width="27" height="27" viewBox="0 0 27 27" fill="none" xmlns="http://www.w3.org/2000/svg">
<rect x="14.1512" y="1.25616" width="13" height="13" rx="2" transform="rotate(30 14.1512 1.25616)" stroke="url(#paint0_linear_11177_3540)" stroke-width="2"/>
<circle cx="15.3342" cy="6.93917" r="1.5" transform="rotate(30 15.3342 6.93917)" fill="url(#paint1_linear_11177_3540)"/>
<circle cx="20.3342" cy="8.93917" r="1.5" transform="rotate(30 20.3342 8.93917)" fill="url(#paint2_linear_11177_3540)"/>
<rect x="3.28516" y="11.8901" width="13" height="13" rx="2" fill="white" stroke="url(#paint3_linear_11177_3540)" stroke-width="2"/>
<circle cx="9.78516" cy="18.3901" r="1.5" fill="url(#paint4_linear_11177_3540)"/>
<circle cx="12.7852" cy="15.3901" r="1.5" fill="url(#paint5_linear_11177_3540)"/>
<circle cx="6.78516" cy="21.3901" r="1.5" fill="url(#paint6_linear_11177_3540)"/>
<defs>
<linearGradient id="paint0_linear_11177_3540" x1="9.94928" y1="13.779" x2="28.2708" y2="-3.35124" gradientUnits="userSpaceOnUse">
<stop stop-color="#3F80F1"/>
<stop offset="1" stop-color="#D946EF"/>
</linearGradient>
<linearGradient id="paint1_linear_11177_3540" x1="13.067" y1="8.21695" x2="16.7313" y2="4.7909" gradientUnits="userSpaceOnUse">
<stop stop-color="#3F80F1"/>
<stop offset="1" stop-color="#D946EF"/>
</linearGradient>
<linearGradient id="paint2_linear_11177_3540" x1="18.067" y1="10.217" x2="21.7313" y2="6.7909" gradientUnits="userSpaceOnUse">
<stop stop-color="#3F80F1"/>
<stop offset="1" stop-color="#D946EF"/>
</linearGradient>
<linearGradient id="paint3_linear_11177_3540" x1="-1.55072" y1="24.779" x2="16.7708" y2="7.64876" gradientUnits="userSpaceOnUse">
<stop stop-color="#3F80F1"/>
<stop offset="1" stop-color="#D946EF"/>
</linearGradient>
<linearGradient id="paint4_linear_11177_3540" x1="7.51798" y1="19.6679" x2="11.1823" y2="16.2419" gradientUnits="userSpaceOnUse">
<stop stop-color="#3F80F1"/>
<stop offset="1" stop-color="#D946EF"/>
</linearGradient>
<linearGradient id="paint5_linear_11177_3540" x1="10.518" y1="16.6679" x2="14.1823" y2="13.2419" gradientUnits="userSpaceOnUse">
<stop stop-color="#3F80F1"/>
<stop offset="1" stop-color="#D946EF"/>
</linearGradient>
<linearGradient id="paint6_linear_11177_3540" x1="4.51798" y1="22.6679" x2="8.18228" y2="19.2419" gradientUnits="userSpaceOnUse">
<stop stop-color="#3F80F1"/>
<stop offset="1" stop-color="#D946EF"/>
</linearGradient>
</defs>
</svg>
