<svg width="25" height="24" viewBox="0 0 25 24" fill="none" xmlns="http://www.w3.org/2000/svg">
<g clip-path="url(#clip0_11270_7616)">
<g clip-path="url(#clip1_11270_7616)">
<g clip-path="url(#clip2_11270_7616)">
<path d="M8.07409 12C8.07384 11.3969 8.19279 10.7997 8.42409 10.2427L1.57942 7.40735C0.362848 10.3483 0.362848 13.6518 1.57942 16.5927L8.42409 13.7573C8.19314 13.2002 8.07421 12.6031 8.07409 12Z" fill="#05FF9F"/>
<path d="M8.42377 13.7573L1.5791 16.5927C2.80082 19.531 5.13606 21.8663 8.07444 23.088L10.9098 16.244C9.78491 15.7764 8.89106 14.8823 8.42377 13.7573Z" fill="#05BFFF"/>
<path d="M10.9091 7.75733L8.07377 0.912659C5.1354 2.13415 2.80029 4.4695 1.5791 7.40799L8.42377 10.2433C8.89043 9.11831 9.78421 8.22429 10.9091 7.75733Z" fill="#7BFF00"/>
<path d="M12.6664 7.40734C13.2695 7.4071 13.8667 7.52604 14.4237 7.75734L17.2591 0.912676C14.3181 -0.3039 11.0147 -0.3039 8.07373 0.912676L10.9091 7.75734C11.4662 7.52639 12.0633 7.40746 12.6664 7.40734Z" fill="#FFE804"/>
<path d="M12.6664 16.5893C12.0633 16.5896 11.4661 16.4706 10.9091 16.2393L8.07373 23.0873C11.0147 24.3039 14.3181 24.3039 17.2591 23.0873L14.4237 16.2427C13.8665 16.4728 13.2693 16.5906 12.6664 16.5893Z" fill="#061BFF"/>
<path d="M14.4238 16.244L17.2592 23.0887C20.1975 21.8669 22.5328 19.5317 23.7545 16.5933L16.9105 13.7573C16.4433 14.8826 15.5491 15.7768 14.4238 16.244Z" fill="#7700FF"/>
<path d="M16.9105 10.2427L23.7552 7.40732C22.5335 4.46912 20.1986 2.13391 17.2605 0.911987L14.4238 7.75732C15.5488 8.22421 16.443 9.11789 16.9105 10.2427Z" fill="#FF2C01"/>
<path d="M23.7545 7.40735L16.9092 10.2427C17.1402 10.7998 17.2591 11.3969 17.2591 12C17.2591 12.6031 17.1402 13.2003 16.9092 13.7573L23.7538 16.5927C24.9704 13.6518 24.9711 10.3483 23.7545 7.40735Z" fill="#EE02FF"/>
</g>
</g>
</g>
<defs>
<clipPath id="clip0_11270_7616">
<rect width="24" height="24" fill="white" transform="translate(0.666504)"/>
</clipPath>
<clipPath id="clip1_11270_7616">
<rect width="24" height="24" fill="white" transform="translate(0.666504)"/>
</clipPath>
<clipPath id="clip2_11270_7616">
<rect width="24" height="24" fill="white" transform="translate(0.666504)"/>
</clipPath>
</defs>
</svg>
